# xmcd
#
# Track frame offsets:
#	150
#	19120
#	40635
#	64865
#	75885
#	93350
#	109770
#	126900
#	159980
#	169670
#	204735
#
# Disc length: 2894 seconds
#
# Revision: 0
# Processed by: cddbd v1.4PL0 Copyright (c) Steve Scherf et al.
# Submitted via: EasyCDDAExtractor 4.6.9.1
#
DISCID=800b4c0b
DTITLE=Joe Cocker - Live - The Best Off
DYEAR=1900
DGENRE=Blues
TTITLE0=The Letter
TTITLE1=Space Captain
TTITLE2=Feeling Alright
TTITLE3=Sticks And Stones
TTITLE4=Delta Lady
TTITLE5=Honky Tonk Women
TTITLE6=Cry Me A River
TTITLE7=Let's Go Get Stoned
TTITLE8=Girl From The North Country
TTITLE9=With a Little Help From My Friends
TTITLE10=She Came In Through The Bathroom Window
EXTD=Ultra Rare Trax Collection\nSend By K@du - ICQ 54117360
EXTT0=
EXTT1=
EXTT2=
EXTT3=
EXTT4=
EXTT5=
EXTT6=
EXTT7=
EXTT8=
EXTT9=
EXTT10=
PLAYORDER=
